# xmcd
#
# Track frame offsets:
#	150
#	15049
#	33403
#	46898
#	63720
#	77838
#	94119
#	112461
#	127890
#	142641
#	154791
#	169354
#	187774
#	207079
#	223357
#	240930
#
# Disc length: 3406 seconds
#
# Revision: 1
# Processed by: cddbd v1.5.1PL0 Copyright (c) Steve Scherf et al.
# Submitted via: audiograbber 1.83.01
#
DISCID=d10d4c10
DTITLE=Tom Cleber - Tom Cleber Voz e Violao
DYEAR=2004
DGENRE=Romantico
TTITLE0=Vida Cigana
TTITLE1=Voce nao me ensinou a te esquecer
TTITLE2=Azul da cor do mar
TTITLE3=Diz coracao
TTITLE4=Impossivel acreditar que perdi voce
TTITLE5=Olhos prateados (Fatima)
TTITLE6=Historia de amor
TTITLE7=Sorte
TTITLE8=Um chopp pra distrair
TTITLE9=Gostoso demais
TTITLE10=So voce
TTITLE11=Menina Veneno
TTITLE12=Estrela Solitaria
TTITLE13=Revelacao
TTITLE14=Sonhos
TTITLE15=Nossa casinha branca
EXTD=
EXTT0=
EXTT1=
EXTT2=
EXTT3=
EXTT4=
EXTT5=
EXTT6=
EXTT7=
EXTT8=
EXTT9=
EXTT10=
EXTT11=
EXTT12=
EXTT13=
EXTT14=
EXTT15=
PLAYORDER=
